<svg t="1687059336834" class="icon" viewBox="0 0 1038 1024" version="1.1" xmlns="http://www.w3.org/2000/svg" p-id="5055" width="32" height="32"><path d="M0 319.750177A548.988657 548.988657 0 0 1 700.1165 64.439259l26.279713-54.58694a7.798134 7.798134 0 1 1 13.802697 6.550433l-26.279712 54.58694a550.158377 550.158377 0 0 1 293.443794 679.685388 108.55003 108.55003 0 0 0-15.596268-21.912758c-21.912757-24.096235-68.779545-57.706194-152.219582-44.293403a10.527481 10.527481 0 0 1-11.619221-6.39447c-0.623851-1.091739-49.050265-106.366552-182.866249-76.109791a10.761425 10.761425 0 0 1-11.775183-4.522918 272.934701 272.934701 0 0 0-109.641769-88.742768l-134.751761 314.342794a1.091739 1.091739 0 0 1 0 0.701833L366.512313 876.147061l-17.077914 38.990672-12.477015 28.073283a7.798134 7.798134 0 0 1 3.977049 10.059594 7.798134 7.798134 0 0 1-7.018321 4.600899 6.862358 6.862358 0 0 1-3.041273-0.623851l-5.302731 11.853164a84.531776 84.531776 0 0 1-155.962686-4.133011 83.362056 83.362056 0 0 1 1.559626-64.490571l12.243071-27.605395a5.146769 5.146769 0 0 1 0.935776-1.325683 10.995369 10.995369 0 0 1 12.243071-0.701832c4.834843 2.417422 7.798134 6.628414 7.018321 10.137575l-1.091739 2.33944-11.229313 25.421918a63.944701 63.944701 0 0 0-1.091739 47.880544 62.852963 62.852963 0 0 0 32.908127 34.623717A63.788739 63.788739 0 0 0 305.530903 959.197192l5.22475-11.61922a7.798134 7.798134 0 1 1 5.926582-14.036642l3.50916-7.798134 26.903564-61.215355 18.637541-42.109925a59.889672 59.889672 0 0 0 3.275216-8.811892l18.793504-44.449366 115.412388-268.879671A260.145761 260.145761 0 0 0 372.282933 491.309132a11.151332 11.151332 0 0 1-11.385276-5.692638c-0.623851-1.16972-63.086907-112.994966-193.783638-91.472116a1.871552 1.871552 0 0 1-0.935776 0h-0.857795a10.839407 10.839407 0 0 1-10.917388-6.082544c0-0.701832-36.339306-70.183209-128.747198-70.183209A217.567948 217.567948 0 0 0 0 319.750177z m167.971813 48.73834c141.224213-207.196429 346.237164-272.310851 348.420642-272.934702a7.798134 7.798134 0 0 1 4.600899 14.660493c-2.183478 0.701832-197.526742 63.008925-335.319776 259.755854 99.894101-6.550433 160.563586 57.706194 183.568082 88.82075 21.444869-45.85303 82.738205-124.770149 85.779478-128.981142a7.798134 7.798134 0 0 1 12.009127 9.435743c-0.623851 1.091739-66.128179 85.779478-84.687739 128.357291 146.760888-19.105429 234.801825 74.160257 261.081537 106.990403 46.398899-80.944634 76.421716-297.732769 76.811623-300.072209a7.798134 7.798134 0 1 1 15.128381 1.949534c-1.325683 9.591705-29.554929 214.838601-76.187772 301.241929 103.32528-15.596269 157.834239 44.293403 178.655257 75.018052 79.930877-251.177907-30.412724-421.801086-31.192537-423.594657a7.798134 7.798134 0 1 1 12.710959-8.499966c1.325683 1.949534 116.972015 180.058922 32.206294 440.672571 87.573048-10.059593 128.747198 22.61459 146.448963 46.086973A527.231862 527.231862 0 0 0 36.183343 299.864934c79.229045 1.091739 118.219716 47.334675 132.022414 68.46762z" fill="#1296db" p-id="5056"></path><path d="M499.080597 479.377987l-199.71022 463.209179a54.041071 54.041071 0 0 1-64.490571 30.568686l-2.495403-1.013757a42.655795 42.655795 0 0 1-29.243004-52.715388l0.701832-2.183478 7.798135-23.394403a18.481578 18.481578 0 0 0-11.463258-23.394403l-1.559627-0.467888a20.821019 20.821019 0 0 0-25.109992 14.50453l-10.761426 37.820951a63.320851 63.320851 0 0 0 39.770485 77.123549l22.224683 7.798134A88.352862 88.352862 0 0 0 335.319776 958.651322l199.554257-466.250451z" fill="#1296db" p-id="5057"></path><path d="M254.219179 1023.999688a97.944567 97.944567 0 0 1-33.376015-5.770619l-22.224683-7.798135a75.251996 75.251996 0 0 1-46.788806-91.394134l10.4495-37.820951a32.440239 32.440239 0 0 1 38.990672-22.692571l2.027515 0.62385a30.412724 30.412724 0 0 1 19.18341 38.366821l-8.421985 25.421918a31.192537 31.192537 0 0 0 21.288907 37.898933h1.16972l1.871552 0.779813a42.577813 42.577813 0 0 0 50.142004-23.628347l199.71022-463.209179a11.775183 11.775183 0 0 1 14.738474-6.39447l35.793437 13.022885a11.61922 11.61922 0 0 1 6.784377 15.596268l-199.164351 466.250452a100.284007 100.284007 0 0 1-92.173948 60.747466zM193.393731 881.215849a9.123817 9.123817 0 0 0-8.655929 6.706395l-10.761425 37.820952a51.857593 51.857593 0 0 0 32.440239 62.930944l22.224682 7.798134a76.733642 76.733642 0 0 0 96.228978-42.187907L519.277765 499.107267l-13.802698-5.068788-194.953358 453.071605a65.972216 65.972216 0 0 1-78.449231 37.1971h-1.169721l-1.949533-0.779813a54.58694 54.58694 0 0 1-36.651232-66.985974l8.65593-26.045769a6.862358 6.862358 0 0 0-4.210993-8.655929L194.953358 881.215849a7.798134 7.798134 0 0 0-1.559627 0z" fill="#1296db" p-id="5058"></path><path d="M701.208239 80.425435L733.80444 11.723871" fill="#1296db" p-id="5059"></path><path d="M701.208239 92.122636a12.243071 12.243071 0 0 1-4.990806-1.091739 11.775183 11.775183 0 0 1-5.614657-15.596268L723.198977 6.733065a11.720596 11.720596 0 0 1 21.210926 9.981612L711.813701 85.806147a11.775183 11.775183 0 0 1-10.605462 6.316489z" fill="#1296db" p-id="5060"></path><path d="M1004.555664 740.22558a15.596269 15.596269 0 0 1-10.605463-4.133011c-50.375948-46.788806-99.816119-61.371317-151.127843-45.385142a15.596269 15.596269 0 0 1-18.01369-6.862358c-42.031944-70.183209-101.375746-93.577612-181.228642-71.742836a15.596269 15.596269 0 0 1-15.596269-4.834843c-9.045836-10.371519-17.077914-20.509093-24.798067-30.256762-45.463123-57.316287-77.981343-98.724381-229.655056-85.38957a15.596269 15.596269 0 0 1-13.880679-6.160527C304.127239 411.768162 241.274276 384.708636 166.724112 402.878289a15.596269 15.596269 0 0 1-17.155896-7.252265c-27.683377-47.568619-71.274948-70.729078-133.270115-70.729078a15.596269 15.596269 0 0 1-13.802698-22.848534C37.898933 233.970699 123.756392 132.594953 248.994429 69.352084c101.375746-51.311724 263.732903-93.577612 458.764243-3.041273 379.925104 176.003892 344.755519 521.461242 311.925373 661.827661a15.596269 15.596269 0 0 1-10.605463 11.385276 15.596269 15.596269 0 0 1-4.522918 0.701832z m-122.430709-86.871216c38.210858 0 75.875847 14.192604 112.60506 42.577813 28.229246-145.435205 38.132877-444.493657-300.072209-601.392119C510.933761 9.384431 358.714179 48.998953 263.031071 97.191423A571.759209 571.759209 0 0 0 42.421851 295.030091c55.912623 5.848601 98.880343 31.192537 128.045365 75.174015 79.696933-15.596269 149.80216 14.660493 208.522112 89.678545 161.031474-12.321052 201.503791 38.990672 248.292597 97.710623 5.692638 7.174284 11.541239 14.50453 17.701765 21.912757 85.779478-20.431112 152.765451 5.848601 200.334071 77.981344a160.875511 160.875511 0 0 1 36.807194-4.133011z" fill="#1296db" p-id="5061"></path><path d="M166.334205 400.148942a15.596269 15.596269 0 0 1-13.412791-23.394403c79.774914-133.348097 202.127642-230.200925 363.704985-287.907119a15.596269 15.596269 0 0 1 10.4495 29.320985c-154.481041 54.976847-271.375075 147.384739-347.328903 274.416347a15.596269 15.596269 0 0 1-13.412791 7.56419zM371.815045 491.699039a13.95866 13.95866 0 0 1-3.977049-0.545869 15.596269 15.596269 0 0 1-11.073351-19.027448c11.61922-44.371384 42.655795-93.577612 94.903295-150.426011A15.697644 15.697644 0 1 1 474.594455 343.14458c-48.036507 52.325481-77.513455 98.490437-87.729011 137.325145a15.596269 15.596269 0 0 1-15.050399 11.229314zM642.488287 609.372886a15.596269 15.596269 0 0 1-11.385276-26.279713c20.743037-22.146701 51.701631-94.279444 80.788672-311.925373a15.728837 15.728837 0 0 1 31.192537 4.133011c-24.564123 183.802026-53.651164 291.41628-88.898731 329.081269a15.596269 15.596269 0 0 1-11.697202 4.990806zM841.496675 691.175315a15.596269 15.596269 0 0 1-4.600899-0.701832A15.596269 15.596269 0 0 1 826.602239 670.666222c50.609892-162.981007 41.096168-310.755653-28.229247-439.268907a15.596269 15.596269 0 0 1 27.449433-14.816455c73.458425 136.155425 83.751963 292.040131 30.568687 463.28716a15.596269 15.596269 0 0 1-14.894437 11.307295z" fill="#1296db" p-id="5062"></path></svg>